# xmcd
#
# Track frame offsets:
#	150
#	16687
#	32477
#	50330
#	68750
#	88832
#	107180
#	127479
#	142180
#	159207
#	178157
#	196592
#	218959
#	234240
#
# Disc length: 3289 seconds
#
# Revision: 0
# Processed by: cddbd v1.4PL0 Copyright (c) Steve Scherf et al.
# Submitted via: dBpowerAMP V4.0
#
DISCID=bf0cd70e
DTITLE=Various Artist - Rhythm Collection 2
DYEAR=1900
DGENRE=Blues
TTITLE0=Straight from the heart
TTITLE1=Always on my mind
TTITLE2=Corazon
TTITLE3=You gotta be
TTITLE4=Step by step
TTITLE5=All over the world
TTITLE6=Hang on to your love
TTITLE7=OOh Baby
TTITLE8=She bop
TTITLE9=Innocence
TTITLE10=Wishing on a star (Mix)
TTITLE11=Only a dream in Rio
TTITLE12=Bamboleo
TTITLE13=Yellow river
EXTD=
EXTT0=
EXTT1=
EXTT2=
EXTT3=
EXTT4=
EXTT5=
EXTT6=
EXTT7=
EXTT8=
EXTT9=
EXTT10=
EXTT11=
EXTT12=
EXTT13=
PLAYORDER=
